<svg xmlns="http://www.w3.org/2000/svg" aria-hidden="true" style="width:0;height:0;position:absolute;overflow:hidden"><defs><symbol id="icon-chevron" viewBox="0 0 32 32"><path fill="#fff" style="fill:var(--color1,#fff)" d="M4.5 19.6 15.7 8.367c.133-.133.278-.228.433-.283s.322-.084.5-.084.345.028.5.084.3.149.433.283L28.799 19.6c.311.311.467.7.467 1.167s-.167.867-.5 1.2c-.333.333-.722.5-1.167.5s-.833-.167-1.167-.5l-9.8-9.8-9.8 9.8c-.311.311-.694.467-1.149.467s-.851-.167-1.184-.5-.5-.722-.5-1.167c0-.444.167-.833.5-1.167z"/></symbol><symbol id="icon-logo" viewBox="0 0 31 32"><path fill="#f6f6f6" style="fill:var(--color1,#f6f6f6)" d="m0 .615 15.714 15.549 15.055 15.22V.615H0z"/><path fill="#f6f6f6" style="fill:var(--color1,#f6f6f6)" d="m4.285 4.681 11.484 11.374 10.824 11.044H4.285V4.681z"/><path fill="#4f2ee8" style="fill:var(--color2,#4f2ee8)" d="M26.666 27.171 15.183 15.797 4.359 4.753h22.308v22.418z"/><path fill="#4f2ee8" style="fill:var(--color2,#4f2ee8)" d="m8.901 9.297 13.077 13.077H8.901V9.297z"/><path fill="#f6f6f6" style="fill:var(--color1,#f6f6f6)" d="m8.901 9.297 13.077 13.077V9.297H8.901z"/></symbol><symbol id="icon-Book_desktop" viewBox="0 0 94 32"><path d="M22.831 8.341c0-4.761-3.6-7.452-9.827-7.452H0V30.49h13.724c6.269 0 10.293-2.939 10.293-8.653 0-4.43-2.711-6.707-5.888-7.245v-.083c2.499-.828 4.702-2.525 4.702-6.169zM5.04 13.143V5.07h8.09c3.007 0 4.659 1.449 4.659 4.057s-1.355 4.016-4.956 4.016H5.039zm0 3.685h8.853c3.177 0 5.083 1.697 5.083 4.72 0 2.774-1.313 4.761-5.633 4.761H5.041v-9.481zM36.949 31.111c-6.777 0-10.886-4.595-10.886-11.178S30.172 8.755 36.949 8.755s10.886 4.595 10.886 11.178c0 6.583-4.109 11.178-10.886 11.178zm0-3.56c4.236 0 6.438-3.271 6.438-7.618 0-4.388-2.203-7.618-6.438-7.618s-6.438 3.229-6.438 7.618c0 4.347 2.203 7.618 6.438 7.618zM60.651 31.111c-6.777 0-10.886-4.595-10.886-11.178S53.874 8.755 60.651 8.755c6.777 0 10.886 4.595 10.886 11.178s-4.109 11.178-10.886 11.178zm0-3.56c4.236 0 6.438-3.271 6.438-7.618 0-4.388-2.203-7.618-6.438-7.618s-6.438 3.229-6.438 7.618c0 4.347 2.203 7.618 6.438 7.618zM74.611.889V30.49h4.447v-7.659l3.007-2.774 6.82 10.433h5.337L85.115 17.2l8.217-7.866h-5.464l-8.81 8.487V.888h-4.447z"/></symbol><symbol id="icon-uil-cart" viewBox="0 0 34 32"><path d="M26.667 8.14h-4.211V6.736a5.614 5.614 0 1 0-11.228 0V8.14H7.017a1.403 1.403 0 0 0-1.403 1.403v15.439a4.21 4.21 0 0 0 4.21 4.21h14.035a4.21 4.21 0 0 0 4.21-4.21V9.543a1.403 1.403 0 0 0-1.403-1.403zM14.035 6.737a2.803 2.803 0 0 1 2.807-2.807 2.803 2.803 0 0 1 2.807 2.807V8.14h-5.614V6.736zm11.229 18.246a1.403 1.403 0 0 1-1.403 1.403H9.826a1.403 1.403 0 0 1-1.403-1.403V10.948h2.807v1.403a1.403 1.403 0 0 0 2.806 0v-1.403h5.614v1.403a1.403 1.403 0 0 0 2.806 0v-1.403h2.807v14.035z"/></symbol></defs></svg>