<svg xmlns="http://www.w3.org/2000/svg" aria-hidden="true" style="width:0;height:0;position:absolute;overflow:hidden"><defs><symbol id="icon-chevron" viewBox="0 0 32 32"><path fill="#fff" style="fill:var(--color1,#fff)" d="M4.5 19.6 15.7 8.367c.133-.133.278-.228.433-.283s.322-.084.5-.084.345.028.5.084.3.149.433.283L28.799 19.6c.311.311.467.7.467 1.167s-.167.867-.5 1.2c-.333.333-.722.5-1.167.5s-.833-.167-1.167-.5l-9.8-9.8-9.8 9.8c-.311.311-.694.467-1.149.467s-.851-.167-1.184-.5-.5-.722-.5-1.167c0-.444.167-.833.5-1.167z"/></symbol><symbol id="icon-ua" viewBox="0 0 20 32"><path fill="#fff" style="fill:var(--color1,#fff)" d="M9.005 30.888a8.64 8.64 0 0 1-3.414-5.351H0V2.42c2.991 1.443 5.153 4.599 5.388 7.876l.846 6.493-.407-.045c-.893 0-1.676.812-1.676 1.608 0 .752.595 1.383 1.378 1.548l1.018.226c1.676-3.051 2.631-6.042 2.631-8.973 0-2.645-.36-5.291-.423-7.996 0-1.202.486-2.3 1.253-3.156.783.857 1.253 1.954 1.253 3.156 0 2.705-.423 5.351-.423 7.996 0 2.931.955 5.922 2.631 8.973l1.018-.226c.783-.165 1.378-.812 1.378-1.548 0-.812-.783-1.608-1.676-1.608l-.423.06.846-6.493c.423-3.277 2.396-6.448 5.388-7.876v23.117h-5.576c-.423 2.179-1.613 4.148-3.414 5.351-.423.286-.783.631-1.018 1.097-.219-.466-.579-.812-.987-1.112zM2.647 17.556c.235-.857.893-1.608 1.738-2.074l-.658-5.351a8.288 8.288 0 0 0-2.036-4.374v11.784h.955v.015zm2.819 6.373c0-.812.125-1.548.298-2.3l-.783-.18c-1.143-.346-2.036-1.203-2.334-2.3h-.955v4.78h3.774zm3.712 0c0-.977-.783-1.834-1.801-1.954-.172.631-.298 1.263-.298 1.954h2.099zm0 1.623H7.314c.298 1.263.955 2.42 1.864 3.397v-3.397zm2.631-5.005c-.72-1.262-1.378-2.585-1.801-3.968-.423 1.383-1.081 2.706-1.801 3.968.72.165 1.316.631 1.801 1.157.486-.526 1.081-.992 1.801-1.157zm1.143 3.382c0-.691-.125-1.323-.297-1.954-1.018.12-1.801.977-1.801 1.954h2.099zm-.235 1.623h-1.864v3.397c.908-.992 1.566-2.134 1.864-3.397zm5.623-1.623v-4.78h-.955c-.298 1.097-1.206 1.954-2.334 2.3l-.783.18c.172.752.298 1.488.298 2.3h3.774zm0-6.373V5.757c-1.081 1.202-1.864 2.706-2.036 4.374l-.658 5.351c.846.466 1.504 1.203 1.739 2.074h.955z"/></symbol><symbol id="icon-down" viewBox="0 0 56 32"><path fill="#4f2ee8" style="fill:var(--color1,#4f2ee8)" d="M25.397 21.134A3.675 3.675 0 0 0 28 22.219a3.67 3.67 0 0 0 2.603-1.085l16.794-16.83A3.675 3.675 0 0 1 50 3.219a3.67 3.67 0 0 1 2.603 6.255l-16.83 16.83a10.998 10.998 0 0 1-15.546 0L3.397 9.474a3.669 3.669 0 0 1-.791-3.975A3.659 3.659 0 0 1 4.59 3.5a3.651 3.651 0 0 1 2.82 0c.447.186.852.459 1.193.803l16.793 16.83z"/></symbol><symbol id="icon-logo" viewBox="0 0 31 32"><path fill="#f6f6f6" style="fill:var(--color1,#f6f6f6)" d="m0 .615 15.714 15.549 15.055 15.22V.615H0z"/><path fill="#f6f6f6" style="fill:var(--color1,#f6f6f6)" d="m4.285 4.681 11.484 11.374 10.824 11.044H4.285V4.681z"/><path fill="#4f2ee8" style="fill:var(--color2,#4f2ee8)" d="M26.666 27.171 15.183 15.797 4.359 4.753h22.308v22.418z"/><path fill="#4f2ee8" style="fill:var(--color2,#4f2ee8)" d="m8.901 9.297 13.077 13.077H8.901V9.297z"/><path fill="#f6f6f6" style="fill:var(--color1,#f6f6f6)" d="m8.901 9.297 13.077 13.077V9.297H8.901z"/></symbol><symbol id="icon-Book_desktop" viewBox="0 0 94 32"><path d="M22.831 8.341c0-4.761-3.6-7.452-9.827-7.452H0V30.49h13.724c6.269 0 10.293-2.939 10.293-8.653 0-4.43-2.711-6.707-5.888-7.245v-.083c2.499-.828 4.702-2.525 4.702-6.169zM5.04 13.143V5.07h8.09c3.007 0 4.659 1.449 4.659 4.057s-1.355 4.016-4.956 4.016H5.039zm0 3.685h8.853c3.177 0 5.083 1.697 5.083 4.72 0 2.774-1.313 4.761-5.633 4.761H5.041v-9.481zM36.949 31.111c-6.777 0-10.886-4.595-10.886-11.178S30.172 8.755 36.949 8.755s10.886 4.595 10.886 11.178c0 6.583-4.109 11.178-10.886 11.178zm0-3.56c4.236 0 6.438-3.271 6.438-7.618 0-4.388-2.203-7.618-6.438-7.618s-6.438 3.229-6.438 7.618c0 4.347 2.203 7.618 6.438 7.618zM60.651 31.111c-6.777 0-10.886-4.595-10.886-11.178S53.874 8.755 60.651 8.755c6.777 0 10.886 4.595 10.886 11.178s-4.109 11.178-10.886 11.178zm0-3.56c4.236 0 6.438-3.271 6.438-7.618 0-4.388-2.203-7.618-6.438-7.618s-6.438 3.229-6.438 7.618c0 4.347 2.203 7.618 6.438 7.618zM74.611.889V30.49h4.447v-7.659l3.007-2.774 6.82 10.433h5.337L85.115 17.2l8.217-7.866h-5.464l-8.81 8.487V.888h-4.447z"/></symbol><symbol id="icon-uil-cart" viewBox="0 0 34 32"><path d="M26.667 8.14h-4.211V6.736a5.614 5.614 0 1 0-11.228 0V8.14H7.017a1.403 1.403 0 0 0-1.403 1.403v15.439a4.21 4.21 0 0 0 4.21 4.21h14.035a4.21 4.21 0 0 0 4.21-4.21V9.543a1.403 1.403 0 0 0-1.403-1.403zM14.035 6.737a2.803 2.803 0 0 1 2.807-2.807 2.803 2.803 0 0 1 2.807 2.807V8.14h-5.614V6.736zm11.229 18.246a1.403 1.403 0 0 1-1.403 1.403H9.826a1.403 1.403 0 0 1-1.403-1.403V10.948h2.807v1.403a1.403 1.403 0 0 0 2.806 0v-1.403h5.614v1.403a1.403 1.403 0 0 0 2.806 0v-1.403h2.807v14.035z"/></symbol><symbol id="icon-x-close" viewBox="0 0 32 32"><path d="M7.626 6.245c-.291.085-.749.427-1.029.774-.432.533-.509 1.054-.24 1.616.088.184 1.011 1.143 3.665 3.806l3.547 3.56-3.551 3.56c-3.907 3.918-3.806 3.799-3.805 4.44 0 .449.157.77.586 1.199.429.43.75.586 1.199.586.634 0 .526.093 4.44-3.808l3.56-3.547 3.56 3.547c3.914 3.901 3.806 3.808 4.44 3.808.449 0 .77-.157 1.199-.586.43-.429.586-.75.586-1.199 0-.634.093-.526-3.808-4.44l-3.547-3.56 3.547-3.56c3.901-3.914 3.808-3.806 3.808-4.44 0-.449-.157-.77-.586-1.199-.429-.43-.75-.586-1.199-.586-.634 0-.526-.093-4.44 3.808l-3.56 3.547-3.56-3.547c-2.721-2.712-3.619-3.576-3.814-3.67-.29-.138-.728-.186-1-.109z"/></symbol><symbol id="icon-lock" viewBox="0 0 32 32"><path d="M14.751 2.963a7.866 7.866 0 0 0-6.226 5.479l-.014.056c-.257.886-.297 1.331-.297 3.257v1.783l-.36.034c-1.35.129-2.006.345-2.875.944-.793.547-1.498 1.496-1.797 2.417-.256.792-.275 1.098-.275 4.4 0 3.301.019 3.607.275 4.4.304.939 1.032 1.904 1.858 2.462.658.445 1.16.647 2 .803.472.088 1.093.095 8.96.095s8.488-.007 8.96-.095c.84-.157 1.342-.359 2-.803.826-.558 1.554-1.522 1.858-2.462.256-.793.275-1.099.275-4.4 0-3.302-.019-3.608-.275-4.4-.304-.941-1.032-1.904-1.858-2.463-.824-.557-1.499-.773-2.814-.898l-.36-.034v-1.783c0-1.926-.04-2.371-.297-3.257-.859-2.891-3.271-5.051-6.245-5.531l-.045-.006c-.611-.098-1.855-.097-2.448.002zm2.369 2.299c1.75.345 3.32 1.665 3.997 3.36.363.909.399 1.194.401 3.165l.002 1.734H10.48l.002-1.734c.002-1.97.038-2.256.401-3.165.871-2.181 3.074-3.599 5.383-3.465.25.015.634.062.854.105zm6.485 10.576c.511.027 1.061.087 1.253.136.855.221 1.616.982 1.835 1.835.247.96.247 6.089 0 7.048-.219.854-.981 1.615-1.835 1.835-.601.155-2.011.185-8.857.185s-8.256-.03-8.857-.185c-.855-.221-1.616-.982-1.835-1.835-.248-.96-.247-6.09 0-7.048.221-.856.979-1.614 1.839-1.838.191-.049.683-.107 1.094-.129 1.091-.057 14.294-.062 15.365-.005z"/></symbol><symbol id="icon-mail" viewBox="0 0 32 32"><path d="M6.4 4.248c-.475.049-1.258.195-1.51.282-.931.32-1.833.997-2.374 1.782-.501.726-.687 1.19-.861 2.142-.104.568-.107.799-.106 7.36 0 6.487.016 7.271.161 8.026a4.853 4.853 0 0 0 1.98 3.012l.016.01c.658.445 1.16.646 2 .802.474.089 1.15.095 10.294.095s9.819-.006 10.294-.095c.869-.162 1.357-.362 2.061-.848a4.82 4.82 0 0 0 1.93-2.946l.005-.031c.145-.755.161-1.539.161-8.026.001-6.561-.002-6.792-.106-7.36-.127-.694-.222-1.007-.439-1.44-.378-.759-.918-1.394-1.551-1.831-.682-.47-1.173-.677-2.008-.845-.417-.085-1.216-.093-10.106-.101-5.31-.005-9.737 0-9.84.01zm18.537 2.256c.512.027 1.062.087 1.254.137.845.218 1.614.981 1.83 1.811.065.251.069.334.018.383-.198.19-11.107 7.776-11.387 7.919-.265.135-.401.17-.651.17s-.386-.035-.651-.17c-.28-.143-11.19-7.729-11.387-7.919-.05-.049-.047-.131.018-.383.217-.834.984-1.593 1.834-1.814.191-.05.682-.109 1.093-.13 1.091-.057 16.959-.061 18.031-.005zm-17.84 7.322c1.77 1.24 3.216 2.273 3.211 2.298-.005.024-1.456 1.351-3.225 2.949-3.099 2.799-3.218 2.899-3.25 2.755-.051-.229-.053-10.255-.001-10.255.025 0 1.495 1.014 3.265 2.253zm21.11 2.8c-.003 2.779-.022 5.121-.04 5.202-.032.144-.151.043-3.25-2.755-1.769-1.598-3.221-2.925-3.225-2.949-.008-.048 6.4-4.551 6.477-4.551.025 0 .042 2.273.039 5.053zm-14.969 1.489c1.325.896 1.801 1.082 2.762 1.082.962 0 1.438-.186 2.767-1.085.507-.344.945-.618.971-.609s1.789 1.587 3.914 3.507l3.867 3.491-.2.206c-.306.3-.686.525-1.111.646l-.018.004c-.615.159-2.048.185-10.191.185s-9.576-.026-10.191-.185a2.613 2.613 0 0 1-1.13-.651l-.2-.206 3.88-3.504c2.134-1.928 3.897-3.505 3.919-3.505s.453.28.959.622z"/></symbol><symbol id="icon-arrow-right" viewBox="0 0 32 32"><path fill="none" stroke="#eac645" style="stroke:var(--color1,#eac645)" stroke-linejoin="round" stroke-linecap="round" stroke-width="3.2" d="M5.333 16h21.333m.001 0-8-8m8 8-8 8"/></symbol><symbol id="icon-arrow-down" viewBox="0 0 28 32"><path fill="#fff" style="fill:var(--color1,#fff)" d="M5.898 12h16.513l-7.423 8.391c-.221.25-.521.39-.834.39s-.613-.14-.834-.39L5.898 12z"/></symbol><symbol id="icon-user" viewBox="0 0 32 32"><path fill="#f6f6f6" style="fill:var(--color1,#f6f6f6)" d="M32 16c0 8.837-7.163 16-16 16S0 24.837 0 16 7.163 0 16 0s16 7.163 16 16z"/><path fill="#4f2ee8" style="fill:var(--color2,#4f2ee8)" d="M10.522 22.847a5.477 5.477 0 1 1 10.954 0H10.521zM16 16.685c-2.27 0-4.108-1.838-4.108-4.108S13.73 8.469 16 8.469c2.27 0 4.108 1.838 4.108 4.108S18.27 16.685 16 16.685z"/></symbol><symbol id="icon-logo" viewBox="0 0 31 32"><path fill="#f6f6f6" style="fill:var(--color1,#f6f6f6)" d="m0 .615 15.714 15.549 15.055 15.22V.615H0z"/><path fill="#f6f6f6" style="fill:var(--color1,#f6f6f6)" d="m4.285 4.681 11.484 11.374 10.824 11.044H4.285V4.681z"/><path fill="#4f2ee8" style="fill:var(--color2,#4f2ee8)" d="M26.666 27.171 15.183 15.797 4.359 4.753h22.308v22.418z"/><path fill="#4f2ee8" style="fill:var(--color2,#4f2ee8)" d="m8.901 9.297 13.077 13.077H8.901V9.297z"/><path fill="#f6f6f6" style="fill:var(--color1,#f6f6f6)" d="m8.901 9.297 13.077 13.077V9.297H8.901z"/></symbol><symbol id="icon-Book_desktop" viewBox="0 0 94 32"><path d="M22.831 8.341c0-4.761-3.6-7.452-9.827-7.452H0V30.49h13.724c6.269 0 10.293-2.939 10.293-8.653 0-4.43-2.711-6.707-5.888-7.245v-.083c2.499-.828 4.702-2.525 4.702-6.169zM5.04 13.143V5.07h8.09c3.007 0 4.659 1.449 4.659 4.057s-1.355 4.016-4.956 4.016H5.039zm0 3.685h8.853c3.177 0 5.083 1.697 5.083 4.72 0 2.774-1.313 4.761-5.633 4.761H5.041v-9.481zM36.949 31.111c-6.777 0-10.886-4.595-10.886-11.178S30.172 8.755 36.949 8.755s10.886 4.595 10.886 11.178c0 6.583-4.109 11.178-10.886 11.178zm0-3.56c4.236 0 6.438-3.271 6.438-7.618 0-4.388-2.203-7.618-6.438-7.618s-6.438 3.229-6.438 7.618c0 4.347 2.203 7.618 6.438 7.618zM60.651 31.111c-6.777 0-10.886-4.595-10.886-11.178S53.874 8.755 60.651 8.755c6.777 0 10.886 4.595 10.886 11.178s-4.109 11.178-10.886 11.178zm0-3.56c4.236 0 6.438-3.271 6.438-7.618 0-4.388-2.203-7.618-6.438-7.618s-6.438 3.229-6.438 7.618c0 4.347 2.203 7.618 6.438 7.618zM74.611.889V30.49h4.447v-7.659l3.007-2.774 6.82 10.433h5.337L85.115 17.2l8.217-7.866h-5.464l-8.81 8.487V.888h-4.447z"/></symbol><symbol id="icon-uil-cart" viewBox="0 0 34 32"><path d="M26.667 8.14h-4.211V6.736a5.614 5.614 0 1 0-11.228 0V8.14H7.017a1.403 1.403 0 0 0-1.403 1.403v15.439a4.21 4.21 0 0 0 4.21 4.21h14.035a4.21 4.21 0 0 0 4.21-4.21V9.543a1.403 1.403 0 0 0-1.403-1.403zM14.035 6.737a2.803 2.803 0 0 1 2.807-2.807 2.803 2.803 0 0 1 2.807 2.807V8.14h-5.614V6.736zm11.229 18.246a1.403 1.403 0 0 1-1.403 1.403H9.826a1.403 1.403 0 0 1-1.403-1.403V10.948h2.807v1.403a1.403 1.403 0 0 0 2.806 0v-1.403h5.614v1.403a1.403 1.403 0 0 0 2.806 0v-1.403h2.807v14.035z"/></symbol><symbol id="icon-double-small-left" viewBox="0 0 32 32"><path fill="#FFF" style="fill:var(--color1,#fff)" d="M13.973 25.333a1.329 1.329 0 0 1-.933-.387l-6.12-6.12c-.723-.724-1.17-1.723-1.17-2.827s.447-2.103 1.17-2.827l6.12-6.12a1.334 1.334 0 1 1 1.88 1.894L8.8 15.053c-.244.242-.395.576-.395.947s.151.705.395.947l6.12 6.107a1.326 1.326 0 0 1 .288 1.469l.003-.009c-.206.486-.678.82-1.229.82h-.01.001z"/><path fill="#FFF" style="fill:var(--color1,#fff)" d="M23.307 25.333a1.329 1.329 0 0 1-.933-.387l-8-8a1.328 1.328 0 0 1-.001-1.894l8-8a1.334 1.334 0 1 1 1.88 1.894L17.2 15.999l7.053 7.053a1.328 1.328 0 0 1 .001 1.894 1.33 1.33 0 0 1-.939.387h-.008z"/></symbol><symbol id="icon-double-small-right" viewBox="0 0 32 32"><path style="fill:var(--color1,#000)" d="M17.467 25.333a1.333 1.333 0 0 1-.934-2.28l6.133-6.107a1.333 1.333 0 0 0 0-1.894l-6.133-6.107a1.328 1.328 0 0 1-.001-1.894c.241-.24.573-.388.94-.388s.699.148.94.388l6.12 6.12c.723.724 1.17 1.723 1.17 2.827s-.447 2.103-1.17 2.827l-6.12 6.12a1.33 1.33 0 0 1-.939.387h-.008z"/><path style="fill:var(--color1,#000)" d="M8.133 25.333a1.333 1.333 0 0 1-.934-2.28L14.252 16 7.199 8.947a1.333 1.333 0 0 1 .94-2.281c.367 0 .699.148.94.388l8 8a1.333 1.333 0 0 1 0 1.894l-8 8a1.33 1.33 0 0 1-.939.387h-.008z"/></symbol><symbol id="icon-small-left" viewBox="0 0 32 32"><path fill="#FFF" style="fill:var(--color1,#fff)" d="M14.133 16.947a1.333 1.333 0 0 1 0-1.894l6.12-6.107a1.333 1.333 0 0 0-.94-2.281c-.367 0-.699.148-.94.388l-6.12 6.12c-.723.724-1.17 1.723-1.17 2.827s.447 2.103 1.17 2.827l6.12 6.12a1.334 1.334 0 1 0 1.88-1.894l-6.12-6.107z"/></symbol><symbol id="icon-small-right" viewBox="0 0 32 32"><path style="fill:var(--color1,#000)" d="m20.533 13.173-6.12-6.12a1.334 1.334 0 1 0-1.88 1.894l6.133 6.107a1.326 1.326 0 0 1 .288 1.469l.003-.009a1.335 1.335 0 0 1-.293.433l-6.133 6.107a1.333 1.333 0 0 0 .94 2.281c.367 0 .699-.148.94-.387l6.12-6.12c.723-.724 1.17-1.723 1.17-2.827s-.447-2.103-1.17-2.827z"/></symbol></defs></svg>