<!-- Generated by IcoMoon.io -->
<svg version="1.1" xmlns="http://www.w3.org/2000/svg" width="32" height="32" viewBox="0 0 32 32">
<title>icon-sun</title>
<path d="M16 25.333c5.155 0 9.333-4.179 9.333-9.333s-4.179-9.333-9.333-9.333v0c-5.155 0-9.333 4.179-9.333 9.333s4.179 9.333 9.333 9.333v0zM16 6c0.368 0 0.667-0.298 0.667-0.667v0-3.333c0-0.368-0.298-0.667-0.667-0.667s-0.667 0.298-0.667 0.667v0 3.333c0 0.368 0.298 0.667 0.667 0.667v0zM16 26c-0.368 0-0.667 0.298-0.667 0.667v0 3.333c0 0.368 0.298 0.667 0.667 0.667s0.667-0.298 0.667-0.667v0-3.333c0-0.368-0.298-0.667-0.667-0.667v0zM6 16c0-0.368-0.298-0.667-0.667-0.667v0h-3.333c-0.368 0-0.667 0.298-0.667 0.667s0.298 0.667 0.667 0.667v0h3.333c0.368 0 0.667-0.298 0.667-0.667v0zM30 15.333h-3.333c-0.368 0-0.667 0.298-0.667 0.667s0.298 0.667 0.667 0.667v0h3.333c0.368 0 0.667-0.298 0.667-0.667s-0.298-0.667-0.667-0.667v0zM8 8.926c0.127 0.105 0.291 0.169 0.47 0.169s0.343-0.064 0.471-0.17l-0.001 0.001c0.12-0.121 0.194-0.287 0.194-0.47s-0.074-0.35-0.194-0.47l0 0-2.368-2.359c-0.123-0.14-0.303-0.229-0.504-0.229-0.37 0-0.67 0.3-0.67 0.67 0 0.201 0.088 0.381 0.228 0.503l0.001 0.001 2.373 2.354z"></path>
<path d="M24 23.074c-0.122-0.174-0.321-0.286-0.547-0.286-0.367 0-0.665 0.298-0.665 0.665 0 0.225 0.112 0.424 0.283 0.544l0.002 0.001 2.352 2.361c0.12 0.121 0.287 0.196 0.471 0.196 0.001 0 0.003 0 0.004 0h-0c0 0 0 0 0 0 0.369 0 0.668-0.299 0.668-0.668 0-0.185-0.075-0.352-0.196-0.473v0l-2.373-2.34zM24 8.926l2.359-2.354c0.121-0.121 0.196-0.288 0.196-0.473 0-0.369-0.299-0.668-0.668-0.668-0 0-0 0-0 0h0c-0 0-0 0-0 0-0.184 0-0.352 0.075-0.472 0.196v0l-2.34 2.373c-0.174 0.122-0.286 0.321-0.286 0.547 0 0.367 0.298 0.665 0.665 0.665 0.225 0 0.424-0.112 0.544-0.283l0.001-0.002zM8 23.074l-2.373 2.352c-0.123 0.121-0.199 0.289-0.199 0.475 0 0.278 0.17 0.516 0.412 0.616l0.004 0.002c0.075 0.032 0.163 0.051 0.255 0.051 0.185 0 0.352-0.075 0.473-0.197l0-0 2.354-2.373c0.177-0.122 0.292-0.323 0.292-0.551 0-0.368-0.298-0.667-0.667-0.667-0.228 0-0.43 0.115-0.55 0.289l-0.001 0.002z"></path>
</svg>
