<svg width="28" height="28" fill="none" xmlns="http://www.w3.org/2000/svg"><path d="M12.907 2.593a6.861 6.861 0 0 0-5.46 4.843c-.225.775-.26 1.165-.26 2.85v1.56l-.315.03c-1.181.113-1.755.302-2.516.826-.694.479-1.311 1.309-1.572 2.115-.224.693-.241.961-.241 3.85 0 2.888.017 3.156.241 3.85.266.822.903 1.666 1.626 2.154.576.389 1.015.566 1.75.703.413.077.956.083 7.84.083s7.427-.006 7.84-.083c.735-.137 1.174-.314 1.75-.703.723-.488 1.36-1.332 1.626-2.154.224-.694.241-.962.241-3.85 0-2.889-.017-3.157-.241-3.85-.266-.823-.903-1.666-1.626-2.155-.721-.487-1.312-.676-2.462-.786l-.315-.03v-1.56c0-1.685-.035-2.075-.26-2.85a6.835 6.835 0 0 0-5.504-4.845c-.535-.086-1.623-.085-2.142.002m2.073 2.011c1.531.302 2.905 1.457 3.497 2.94.318.795.349 1.045.351 2.769l.002 1.517H9.17l.002-1.517c.002-1.724.033-1.974.351-2.769.762-1.908 2.69-3.149 4.71-3.032.219.013.555.054.747.092m5.674 9.254c.447.024.928.076 1.096.119.748.193 1.414.859 1.606 1.606.216.84.216 5.328 0 6.167-.192.747-.858 1.413-1.606 1.606-.526.136-1.76.162-7.75.162s-7.224-.026-7.75-.162c-.748-.193-1.414-.859-1.606-1.606-.217-.84-.216-5.329 0-6.167.193-.749.857-1.412 1.609-1.608.167-.043.598-.094.957-.113.955-.05 12.507-.054 13.444-.004" fill-rule="evenodd" fill="#000"/></svg>