<svg width="28" height="28" fill="none" xmlns="http://www.w3.org/2000/svg"><path d="M5.6 3.717c-.416.043-1.101.171-1.321.247-.815.28-1.604.872-2.077 1.559-.438.635-.601 1.041-.753 1.874-.091.497-.094.699-.093 6.44 0 5.676.014 6.362.141 7.023a4.238 4.238 0 0 0 1.746 2.645c.576.389 1.015.565 1.75.702.415.078 1.006.083 9.007.083s8.592-.005 9.007-.083c.76-.142 1.187-.317 1.803-.742a4.207 4.207 0 0 0 1.693-2.605c.127-.661.141-1.347.141-7.023.001-5.741-.002-5.943-.093-6.44-.111-.607-.194-.881-.384-1.26-.331-.664-.803-1.22-1.357-1.602-.597-.411-1.026-.592-1.757-.739-.365-.074-1.064-.081-8.843-.088-4.646-.004-8.52 0-8.61.009m16.22 1.974c.448.024.929.076 1.097.12.739.191 1.412.858 1.601 1.585.057.22.06.292.016.335-.173.166-9.719 6.804-9.964 6.929-.232.118-.351.149-.57.149-.219 0-.338-.031-.57-.149-.245-.125-9.791-6.763-9.964-6.929-.044-.043-.041-.115.016-.335.19-.73.861-1.394 1.605-1.587.167-.044.597-.095.956-.114.955-.05 14.839-.053 15.777-.004M6.21 12.098c1.549 1.085 2.814 1.989 2.81 2.011-.004.021-1.274 1.182-2.822 2.58-2.712 2.449-2.816 2.537-2.844 2.411-.045-.2-.046-8.973-.001-8.973.022 0 1.308.887 2.857 1.971m18.471 2.45c-.003 2.432-.019 4.481-.035 4.552-.028.126-.132.038-2.844-2.411-1.548-1.398-2.818-2.559-2.822-2.58-.007-.042 5.6-3.982 5.667-3.982.022 0 .037 1.989.034 4.421m-13.098 1.303c1.159.784 1.576.947 2.417.947.842 0 1.258-.163 2.421-.949.444-.301.827-.541.85-.533.023.008 1.565 1.389 3.425 3.069l3.384 3.055-.175.18a2.285 2.285 0 0 1-.988.569c-.538.139-1.792.162-8.917.162s-8.379-.023-8.917-.162a2.285 2.285 0 0 1-.988-.569l-.175-.18 3.395-3.066c1.867-1.687 3.41-3.067 3.429-3.067.019 0 .396.245.839.544" fill-rule="evenodd" fill="#000"/></svg>