<svg width="28" height="28" fill="none" xmlns="http://www.w3.org/2000/svg"><path d="M6.673 5.464c-.255.074-.655.374-.9.677-.378.466-.445.922-.21 1.414.077.161.885 1 3.207 3.33L11.874 14l-3.107 3.115C5.348 20.543 5.437 20.439 5.438 21c0 .393.137.674.513 1.049.375.376.656.513 1.049.513.555 0 .46.081 3.885-3.332L14 16.126l3.115 3.104c3.425 3.413 3.33 3.332 3.885 3.332.393 0 .674-.137 1.049-.513.376-.375.513-.656.513-1.049 0-.555.081-.46-3.332-3.885L16.126 14l3.104-3.115C22.643 7.46 22.562 7.555 22.562 7c0-.393-.137-.674-.513-1.049-.375-.376-.656-.513-1.049-.513-.555 0-.46-.081-3.885 3.332L14 11.874 10.885 8.77C8.504 6.397 7.718 5.641 7.548 5.559c-.254-.121-.637-.163-.875-.095" fill-rule="evenodd" fill="#000"/></svg>