
<svg xmlns="http://www.w3.org/2000/svg" aria-hidden="true" style="position:absolute;width:0;height:0;overflow:hidden">
  <defs>

    <!-- Chevron -->
    <symbol id="icon-chevron" viewBox="0 0 32 32">
        <path fill="#fff" style="fill: var(--color1, #fff)" d="M4.5 19.6l11.2-11.233c0.133-0.133 0.278-0.228 0.433-0.283s0.322-0.084 0.5-0.084c0.178 0 0.345 0.028 0.5 0.084s0.3 0.149 0.433 0.283l11.233 11.233c0.311 0.311 0.467 0.7 0.467 1.167s-0.167 0.867-0.5 1.2c-0.333 0.333-0.722 0.5-1.167 0.5s-0.833-0.167-1.167-0.5l-9.8-9.8-9.8 9.8c-0.311 0.311-0.694 0.467-1.149 0.467s-0.851-0.167-1.184-0.5-0.5-0.722-0.5-1.167c0-0.444 0.167-0.833 0.5-1.167z"></path>
        </symbol>
    <!-- Emblem -->  
    <symbol id="icon-ua" viewBox="0 0 20 32">
        <path fill="#fff" style="fill: var(--color1, #fff)" d="M9.005 30.888c-1.738-1.262-2.991-3.156-3.414-5.351h-5.591v-23.117c2.991 1.443 5.153 4.599 5.388 7.876l0.846 6.493-0.407-0.045c-0.893 0-1.676 0.812-1.676 1.608 0 0.752 0.595 1.383 1.378 1.548l1.018 0.226c1.676-3.051 2.631-6.042 2.631-8.973 0-2.645-0.36-5.291-0.423-7.996 0-1.202 0.486-2.3 1.253-3.156 0.783 0.857 1.253 1.954 1.253 3.156 0 2.705-0.423 5.351-0.423 7.996 0 2.931 0.955 5.922 2.631 8.973l1.018-0.226c0.783-0.165 1.378-0.812 1.378-1.548 0-0.812-0.783-1.608-1.676-1.608l-0.423 0.060 0.846-6.493c0.423-3.277 2.396-6.448 5.388-7.876v23.117h-5.576c-0.423 2.179-1.613 4.148-3.414 5.351-0.423 0.286-0.783 0.631-1.018 1.097-0.219-0.466-0.579-0.812-0.987-1.112zM2.647 17.556c0.235-0.857 0.893-1.608 1.738-2.074l-0.658-5.351c-0.235-1.668-0.955-3.156-2.036-4.374v11.784h0.955v0.015zM5.466 23.929c0-0.812 0.125-1.548 0.298-2.3l-0.783-0.18c-1.143-0.346-2.036-1.203-2.334-2.3h-0.955v4.78h3.774zM9.178 23.929c0-0.977-0.783-1.834-1.801-1.954-0.172 0.631-0.298 1.263-0.298 1.954h2.099zM9.178 25.552h-1.864c0.298 1.263 0.955 2.42 1.864 3.397v-3.397zM11.809 20.547c-0.72-1.262-1.378-2.585-1.801-3.968-0.423 1.383-1.081 2.706-1.801 3.968 0.72 0.165 1.316 0.631 1.801 1.157 0.486-0.526 1.081-0.992 1.801-1.157zM12.952 23.929c0-0.691-0.125-1.323-0.297-1.954-1.018 0.12-1.801 0.977-1.801 1.954h2.099zM12.717 25.552h-1.864v3.397c0.908-0.992 1.566-2.134 1.864-3.397zM18.34 23.929v-4.78h-0.955c-0.298 1.097-1.206 1.954-2.334 2.3l-0.783 0.18c0.172 0.752 0.298 1.488 0.298 2.3h3.774zM18.34 17.556v-11.799c-1.081 1.202-1.864 2.706-2.036 4.374l-0.658 5.351c0.846 0.466 1.504 1.203 1.739 2.074h0.955z"></path>
    </symbol>
    <symbol id="icon-down" viewBox="0 0 56 32">
    <path fill="#4f2ee8" style="fill: var(--color1, #4f2ee8)" d="M25.397 21.134c0.341 0.344 0.746 0.616 1.193 0.803s0.926 0.282 1.41 0.282c0.484 0 0.963-0.096 1.41-0.282s0.852-0.459 1.193-0.803l16.794-16.83c0.341-0.344 0.746-0.616 1.193-0.803s0.926-0.282 1.41-0.282c0.484 0 0.963 0.096 1.41 0.282s0.852 0.459 1.193 0.803c0.683 0.687 1.066 1.616 1.066 2.585s-0.383 1.898-1.066 2.585l-16.83 16.83c-2.062 2.060-4.858 3.217-7.773 3.217s-5.711-1.157-7.773-3.217l-16.83-16.83c-0.677-0.683-1.059-1.605-1.063-2.567-0.003-0.483 0.090-0.961 0.272-1.408s0.451-0.853 0.791-1.196c0.341-0.344 0.746-0.616 1.193-0.803s0.926-0.282 1.41-0.282 0.963 0.096 1.41 0.282c0.447 0.186 0.852 0.459 1.193 0.803l16.793 16.83z"></path>
    </symbol>

  </defs>
</svg> 