<svg xmlns="http://www.w3.org/2000/svg" aria-hidden="true" style="position:absolute;width:0;height:0;overflow:hidden">
  <defs>

    <!-- Chevron -->
    <symbol id="icon-chevron" viewBox="0 0 32 32">
      <path fill="#fff" style="fill: var(--color1, #fff)"
        d="M4.5 19.6l11.2-11.233c0.133-0.133 0.278-0.228 0.433-0.283s0.322-0.084 0.5-0.084c0.178 0 0.345 0.028 0.5 0.084s0.3 0.149 0.433 0.283l11.233 11.233c0.311 0.311 0.467 0.7 0.467 1.167s-0.167 0.867-0.5 1.2c-0.333 0.333-0.722 0.5-1.167 0.5s-0.833-0.167-1.167-0.5l-9.8-9.8-9.8 9.8c-0.311 0.311-0.694 0.467-1.149 0.467s-0.851-0.167-1.184-0.5-0.5-0.722-0.5-1.167c0-0.444 0.167-0.833 0.5-1.167z">
      </path>
    </symbol>

     <!-- Emblem -->  
    <symbol id="icon-ua" viewBox="0 0 20 32">
        <path fill="#fff" style="fill: var(--color1, #fff)" d="M9.005 30.888c-1.738-1.262-2.991-3.156-3.414-5.351h-5.591v-23.117c2.991 1.443 5.153 4.599 5.388 7.876l0.846 6.493-0.407-0.045c-0.893 0-1.676 0.812-1.676 1.608 0 0.752 0.595 1.383 1.378 1.548l1.018 0.226c1.676-3.051 2.631-6.042 2.631-8.973 0-2.645-0.36-5.291-0.423-7.996 0-1.202 0.486-2.3 1.253-3.156 0.783 0.857 1.253 1.954 1.253 3.156 0 2.705-0.423 5.351-0.423 7.996 0 2.931 0.955 5.922 2.631 8.973l1.018-0.226c0.783-0.165 1.378-0.812 1.378-1.548 0-0.812-0.783-1.608-1.676-1.608l-0.423 0.060 0.846-6.493c0.423-3.277 2.396-6.448 5.388-7.876v23.117h-5.576c-0.423 2.179-1.613 4.148-3.414 5.351-0.423 0.286-0.783 0.631-1.018 1.097-0.219-0.466-0.579-0.812-0.987-1.112zM2.647 17.556c0.235-0.857 0.893-1.608 1.738-2.074l-0.658-5.351c-0.235-1.668-0.955-3.156-2.036-4.374v11.784h0.955v0.015zM5.466 23.929c0-0.812 0.125-1.548 0.298-2.3l-0.783-0.18c-1.143-0.346-2.036-1.203-2.334-2.3h-0.955v4.78h3.774zM9.178 23.929c0-0.977-0.783-1.834-1.801-1.954-0.172 0.631-0.298 1.263-0.298 1.954h2.099zM9.178 25.552h-1.864c0.298 1.263 0.955 2.42 1.864 3.397v-3.397zM11.809 20.547c-0.72-1.262-1.378-2.585-1.801-3.968-0.423 1.383-1.081 2.706-1.801 3.968 0.72 0.165 1.316 0.631 1.801 1.157 0.486-0.526 1.081-0.992 1.801-1.157zM12.952 23.929c0-0.691-0.125-1.323-0.297-1.954-1.018 0.12-1.801 0.977-1.801 1.954h2.099zM12.717 25.552h-1.864v3.397c0.908-0.992 1.566-2.134 1.864-3.397zM18.34 23.929v-4.78h-0.955c-0.298 1.097-1.206 1.954-2.334 2.3l-0.783 0.18c0.172 0.752 0.298 1.488 0.298 2.3h3.774zM18.34 17.556v-11.799c-1.081 1.202-1.864 2.706-2.036 4.374l-0.658 5.351c0.846 0.466 1.504 1.203 1.739 2.074h0.955z"></path>
    </symbol>

    <!-- Down -->
    <symbol id="icon-down" viewBox="0 0 56 32">
    <path fill="#4f2ee8" style="fill: var(--color1, #4f2ee8)" d="M25.397 21.134c0.341 0.344 0.746 0.616 1.193 0.803s0.926 0.282 1.41 0.282c0.484 0 0.963-0.096 1.41-0.282s0.852-0.459 1.193-0.803l16.794-16.83c0.341-0.344 0.746-0.616 1.193-0.803s0.926-0.282 1.41-0.282c0.484 0 0.963 0.096 1.41 0.282s0.852 0.459 1.193 0.803c0.683 0.687 1.066 1.616 1.066 2.585s-0.383 1.898-1.066 2.585l-16.83 16.83c-2.062 2.060-4.858 3.217-7.773 3.217s-5.711-1.157-7.773-3.217l-16.83-16.83c-0.677-0.683-1.059-1.605-1.063-2.567-0.003-0.483 0.090-0.961 0.272-1.408s0.451-0.853 0.791-1.196c0.341-0.344 0.746-0.616 1.193-0.803s0.926-0.282 1.41-0.282 0.963 0.096 1.41 0.282c0.447 0.186 0.852 0.459 1.193 0.803l16.793 16.83z"></path>
    </symbol>

<!-- Logo -->
<symbol id="icon-logo" viewBox="0 0 31 32">
<path fill="#f6f6f6" style="fill: var(--color1, #f6f6f6)" d="M0 0.615l15.714 15.549 15.055 15.22v-30.769h-30.769z"></path>
<path fill="#f6f6f6" style="fill: var(--color1, #f6f6f6)" d="M4.285 4.681l11.484 11.374 10.824 11.044h-22.308v-22.418z"></path>
<path fill="#4f2ee8" style="fill: var(--color2, #4f2ee8)" d="M26.666 27.171l-11.483-11.374-10.824-11.044h22.308v22.418z"></path>
<path fill="#4f2ee8" style="fill: var(--color2, #4f2ee8)" d="M8.901 9.297l13.077 13.077h-13.077v-13.077z"></path>
<path fill="#f6f6f6" style="fill: var(--color1, #f6f6f6)" d="M8.901 9.297l13.077 13.077v-13.077h-13.077z"></path>
</symbol>

<!-- Book desktop -->
<symbol id="icon-Book_desktop" viewBox="0 0 94 32">
<path d="M22.831 8.341c0-4.761-3.6-7.452-9.827-7.452h-13.004v29.601h13.724c6.269 0 10.293-2.939 10.293-8.653 0-4.43-2.711-6.707-5.888-7.245v-0.083c2.499-0.828 4.702-2.525 4.702-6.169zM5.040 13.143v-8.073h8.090c3.007 0 4.659 1.449 4.659 4.057s-1.355 4.016-4.956 4.016h-7.794zM5.040 16.828h8.853c3.177 0 5.083 1.697 5.083 4.72 0 2.774-1.313 4.761-5.633 4.761h-8.302v-9.481z"></path>
<path d="M36.949 31.111c-6.777 0-10.886-4.595-10.886-11.178s4.109-11.178 10.886-11.178 10.886 4.595 10.886 11.178c0 6.583-4.109 11.178-10.886 11.178zM36.949 27.551c4.236 0 6.438-3.271 6.438-7.618 0-4.388-2.203-7.618-6.438-7.618s-6.438 3.229-6.438 7.618c0 4.347 2.203 7.618 6.438 7.618z"></path>
<path d="M60.651 31.111c-6.777 0-10.886-4.595-10.886-11.178s4.109-11.178 10.886-11.178c6.777 0 10.886 4.595 10.886 11.178s-4.109 11.178-10.886 11.178zM60.651 27.551c4.236 0 6.438-3.271 6.438-7.618 0-4.388-2.203-7.618-6.438-7.618s-6.438 3.229-6.438 7.618c0 4.347 2.203 7.618 6.438 7.618z"></path>
<path d="M74.611 0.889v29.601h4.447v-7.659l3.007-2.774 6.82 10.433h5.337l-9.107-13.29 8.217-7.866h-5.464l-8.81 8.487v-16.933h-4.447z"></path>
</symbol>

<!-- Cart -->
<symbol id="icon-uil-cart" viewBox="0 0 34 32">
<path d="M26.667 8.14h-4.211v-1.404c0-1.489-0.591-2.917-1.644-3.97s-2.481-1.644-3.97-1.644c-1.489 0-2.917 0.591-3.97 1.644s-1.644 2.481-1.644 3.97v1.404h-4.211c-0.372 0-0.729 0.148-0.992 0.411s-0.411 0.62-0.411 0.992v15.439c0 1.117 0.444 2.188 1.233 2.977s1.861 1.233 2.977 1.233h14.035c1.117 0 2.188-0.444 2.977-1.233s1.233-1.861 1.233-2.977v-15.439c0-0.372-0.148-0.729-0.411-0.992s-0.62-0.411-0.992-0.411zM14.035 6.737c0-0.744 0.296-1.458 0.822-1.985s1.24-0.822 1.985-0.822c0.744 0 1.458 0.296 1.985 0.822s0.822 1.24 0.822 1.985v1.403h-5.614v-1.404zM25.264 24.983c0 0.372-0.148 0.729-0.411 0.992s-0.62 0.411-0.992 0.411h-14.035c-0.372 0-0.729-0.148-0.992-0.411s-0.411-0.62-0.411-0.992v-14.035h2.807v1.403c0 0.372 0.148 0.729 0.411 0.992s0.62 0.411 0.992 0.411c0.372 0 0.729-0.148 0.992-0.411s0.411-0.62 0.411-0.992v-1.403h5.614v1.403c0 0.372 0.148 0.729 0.411 0.992s0.62 0.411 0.992 0.411c0.372 0 0.729-0.148 0.992-0.411s0.411-0.62 0.411-0.992v-1.403h2.807v14.035z"></path>
</symbol>

    <!-- Authorization form -->
    <symbol id="icon-x-close" viewBox="0 0 20 20">
      <path
        d="M10 8.586l-7.071-7.071-1.414 1.414 7.071 7.071-7.071 7.071 1.414 1.414 7.071-7.071 7.071 7.071 1.414-1.414-7.071-7.071 7.071-7.071-1.414-1.414-7.071 7.071z">
      </path>
    </symbol>

    <symbol id="icon-lock" viewBox="0 0 24 24">
      <path
        d="M5 12h14c0.276 0 0.525 0.111 0.707 0.293s0.293 0.431 0.293 0.707v7c0 0.276-0.111 0.525-0.293 0.707s-0.431 0.293-0.707 0.293h-14c-0.276 0-0.525-0.111-0.707-0.293s-0.293-0.431-0.293-0.707v-7c0-0.276 0.111-0.525 0.293-0.707s0.431-0.293 0.707-0.293zM18 10v-3c0-1.657-0.673-3.158-1.757-4.243s-2.586-1.757-4.243-1.757-3.158 0.673-4.243 1.757-1.757 2.586-1.757 4.243v3h-1c-0.828 0-1.58 0.337-2.121 0.879s-0.879 1.293-0.879 2.121v7c0 0.828 0.337 1.58 0.879 2.121s1.293 0.879 2.121 0.879h14c0.828 0 1.58-0.337 2.121-0.879s0.879-1.293 0.879-2.121v-7c0-0.828-0.337-1.58-0.879-2.121s-1.293-0.879-2.121-0.879zM8 10v-3c0-1.105 0.447-2.103 1.172-2.828s1.723-1.172 2.828-1.172 2.103 0.447 2.828 1.172 1.172 1.723 1.172 2.828v3z">
      </path>
    </symbol>

    </symbol>
    <symbol id="icon-mail" viewBox="0 0 32 32">
      <path
        d="M28 5h-24c-2.209 0-4 1.792-4 4v13c0 2.209 1.791 4 4 4h24c2.209 0 4-1.791 4-4v-13c0-2.208-1.791-4-4-4zM2 10.25l6.999 5.25-6.999 5.25v-10.5zM30 22c0 1.104-0.898 2-2 2h-24c-1.103 0-2-0.896-2-2l7.832-5.875 4.368 3.277c0.533 0.398 1.166 0.6 1.8 0.6 0.633 0 1.266-0.201 1.799-0.6l4.369-3.277 7.832 5.875zM30 20.75l-7-5.25 7-5.25v10.5zM17.199 18.602c-0.349 0.262-0.763 0.4-1.199 0.4s-0.851-0.139-1.2-0.4l-12.8-9.602c0-1.103 0.897-2 2-2h24c1.102 0 2 0.897 2 2l-12.801 9.602z">
      </path>
    </symbol>

    <symbol id="icon-arrow-right" viewBox="0 0 32 32">
      <path fill="none" stroke="#eac645" style="stroke: var(--color1, #eac645)" stroke-linejoin="round"
        stroke-linecap="round" stroke-miterlimit="4" stroke-width="3.2"
        d="M5.333 16h21.333M26.667 16l-8-8M26.667 16l-8 8"></path>
    </symbol>

    <symbol id="icon-arrow-down" viewBox="0 0 28 32">
      <path fill="#fff" style="fill: var(--color1, #fff)"
        d="M5.898 12h16.513l-7.423 8.391c-0.221 0.25-0.521 0.39-0.834 0.39s-0.613-0.14-0.834-0.39l-7.422-8.391z"></path>
    </symbol>

    <symbol id="icon-user" viewBox="0 0 32 32">
      <path fill="#f6f6f6" style="fill: var(--color1, #f6f6f6)"
        d="M32 16c0 8.837-7.163 16-16 16s-16-7.163-16-16c0-8.837 7.163-16 16-16s16 7.163 16 16z"></path>
      <path fill="#4f2ee8" style="fill: var(--color2, #4f2ee8)"
        d="M10.522 22.847c0-1.453 0.577-2.846 1.604-3.873s2.421-1.604 3.873-1.604c1.453 0 2.846 0.577 3.873 1.604s1.604 2.42 1.604 3.873h-10.955zM16 16.685c-2.27 0-4.108-1.838-4.108-4.108s1.838-4.108 4.108-4.108c2.27 0 4.108 1.838 4.108 4.108s-1.838 4.108-4.108 4.108z">
      </path>
    </symbol>
    <!--  -->

    <symbol id="icon-logo" viewBox="0 0 31 32">
      <path fill="#f6f6f6" style="fill: var(--color1, #f6f6f6)"
        d="M0 0.615l15.714 15.549 15.055 15.22v-30.769h-30.769z"></path>
      <path fill="#f6f6f6" style="fill: var(--color1, #f6f6f6)"
        d="M4.285 4.681l11.484 11.374 10.824 11.044h-22.308v-22.418z"></path>
      <path fill="#4f2ee8" style="fill: var(--color2, #4f2ee8)"
        d="M26.666 27.171l-11.483-11.374-10.824-11.044h22.308v22.418z"></path>
      <path fill="#4f2ee8" style="fill: var(--color2, #4f2ee8)" d="M8.901 9.297l13.077 13.077h-13.077v-13.077z"></path>
      <path fill="#f6f6f6" style="fill: var(--color1, #f6f6f6)" d="M8.901 9.297l13.077 13.077v-13.077h-13.077z"></path>
    </symbol>

    <symbol id="icon-Book_desktop" viewBox="0 0 94 32">
      <path
        d="M22.831 8.341c0-4.761-3.6-7.452-9.827-7.452h-13.004v29.601h13.724c6.269 0 10.293-2.939 10.293-8.653 0-4.43-2.711-6.707-5.888-7.245v-0.083c2.499-0.828 4.702-2.525 4.702-6.169zM5.040 13.143v-8.073h8.090c3.007 0 4.659 1.449 4.659 4.057s-1.355 4.016-4.956 4.016h-7.794zM5.040 16.828h8.853c3.177 0 5.083 1.697 5.083 4.72 0 2.774-1.313 4.761-5.633 4.761h-8.302v-9.481z">
      </path>
      <path
        d="M36.949 31.111c-6.777 0-10.886-4.595-10.886-11.178s4.109-11.178 10.886-11.178 10.886 4.595 10.886 11.178c0 6.583-4.109 11.178-10.886 11.178zM36.949 27.551c4.236 0 6.438-3.271 6.438-7.618 0-4.388-2.203-7.618-6.438-7.618s-6.438 3.229-6.438 7.618c0 4.347 2.203 7.618 6.438 7.618z">
      </path>
      <path
        d="M60.651 31.111c-6.777 0-10.886-4.595-10.886-11.178s4.109-11.178 10.886-11.178c6.777 0 10.886 4.595 10.886 11.178s-4.109 11.178-10.886 11.178zM60.651 27.551c4.236 0 6.438-3.271 6.438-7.618 0-4.388-2.203-7.618-6.438-7.618s-6.438 3.229-6.438 7.618c0 4.347 2.203 7.618 6.438 7.618z">
      </path>
      <path
        d="M74.611 0.889v29.601h4.447v-7.659l3.007-2.774 6.82 10.433h5.337l-9.107-13.29 8.217-7.866h-5.464l-8.81 8.487v-16.933h-4.447z">
      </path>
    </symbol>

    <symbol id="icon-uil-cart" viewBox="0 0 34 32">
      <path
        d="M26.667 8.14h-4.211v-1.404c0-1.489-0.591-2.917-1.644-3.97s-2.481-1.644-3.97-1.644c-1.489 0-2.917 0.591-3.97 1.644s-1.644 2.481-1.644 3.97v1.404h-4.211c-0.372 0-0.729 0.148-0.992 0.411s-0.411 0.62-0.411 0.992v15.439c0 1.117 0.444 2.188 1.233 2.977s1.861 1.233 2.977 1.233h14.035c1.117 0 2.188-0.444 2.977-1.233s1.233-1.861 1.233-2.977v-15.439c0-0.372-0.148-0.729-0.411-0.992s-0.62-0.411-0.992-0.411zM14.035 6.737c0-0.744 0.296-1.458 0.822-1.985s1.24-0.822 1.985-0.822c0.744 0 1.458 0.296 1.985 0.822s0.822 1.24 0.822 1.985v1.403h-5.614v-1.404zM25.264 24.983c0 0.372-0.148 0.729-0.411 0.992s-0.62 0.411-0.992 0.411h-14.035c-0.372 0-0.729-0.148-0.992-0.411s-0.411-0.62-0.411-0.992v-14.035h2.807v1.403c0 0.372 0.148 0.729 0.411 0.992s0.62 0.411 0.992 0.411c0.372 0 0.729-0.148 0.992-0.411s0.411-0.62 0.411-0.992v-1.403h5.614v1.403c0 0.372 0.148 0.729 0.411 0.992s0.62 0.411 0.992 0.411c0.372 0 0.729-0.148 0.992-0.411s0.411-0.62 0.411-0.992v-1.403h2.807v14.035z">
      </path>
    </symbol>
  </defs>
</svg>