
<svg xmlns="http://www.w3.org/2000/svg" aria-hidden="true" style="position:absolute;width:0;height:0;overflow:hidden">
  <defs>

    <!-- Chevron -->
    <symbol id="icon-chevron" viewBox="0 0 32 32">
        <path fill="#fff" style="fill: var(--color1, #fff)" d="M4.5 19.6l11.2-11.233c0.133-0.133 0.278-0.228 0.433-0.283s0.322-0.084 0.5-0.084c0.178 0 0.345 0.028 0.5 0.084s0.3 0.149 0.433 0.283l11.233 11.233c0.311 0.311 0.467 0.7 0.467 1.167s-0.167 0.867-0.5 1.2c-0.333 0.333-0.722 0.5-1.167 0.5s-0.833-0.167-1.167-0.5l-9.8-9.8-9.8 9.8c-0.311 0.311-0.694 0.467-1.149 0.467s-0.851-0.167-1.184-0.5-0.5-0.722-0.5-1.167c0-0.444 0.167-0.833 0.5-1.167z"></path>
    </symbol>
    <symbol id="icon-arrow-narrow-right" viewBox="0 0 32 32">
      <path stroke-linejoin="round" stroke-linecap="round" stroke-miterlimit="4" stroke-width="3.2" d="M5.333 16h21.333M26.666 16l-8-8M26.666 16l-8 8"></path>
    </symbol>
    <symbol id="icon-uil_cart" viewBox="0 0 20 20">
      <path d="M15.833 5.833h-2.5v-0.833c0-0.884-0.351-1.732-0.976-2.357s-1.473-0.976-2.357-0.976c-0.884 0-1.732 0.351-2.357 0.976s-0.976 1.473-0.976 2.357v0.833h-2.5c-0.221 0-0.433 0.088-0.589 0.244s-0.244 0.368-0.244 0.589v9.167c0 0.663 0.263 1.299 0.732 1.768s1.105 0.732 1.768 0.732h8.333c0.663 0 1.299-0.263 1.768-0.732s0.732-1.105 0.732-1.768v-9.167c0-0.221-0.088-0.433-0.244-0.589s-0.368-0.244-0.589-0.244zM8.333 5c0-0.442 0.176-0.866 0.488-1.179s0.736-0.488 1.179-0.488c0.442 0 0.866 0.176 1.179 0.488s0.488 0.736 0.488 1.179v0.833h-3.333v-0.833zM15 15.833c0 0.221-0.088 0.433-0.244 0.589s-0.368 0.244-0.589 0.244h-8.333c-0.221 0-0.433-0.088-0.589-0.244s-0.244-0.368-0.244-0.589v-8.333h1.667v0.833c0 0.221 0.088 0.433 0.244 0.589s0.368 0.244 0.589 0.244c0.221 0 0.433-0.088 0.589-0.244s0.244-0.368 0.244-0.589v-0.833h3.333v0.833c0 0.221 0.088 0.433 0.244 0.589s0.368 0.244 0.589 0.244c0.221 0 0.433-0.088 0.589-0.244s0.244-0.368 0.244-0.589v-0.833h1.667v8.333z"></path>
    </symbol>
    <symbol id="icon-align-left" viewBox="0 0 32 32">
      <path stroke-linejoin="round" stroke-linecap="round" stroke-miterlimit="4" stroke-width="2.2857" d="M22.667 13.333h-18.667"></path>
      <path stroke-linejoin="round" stroke-linecap="round" stroke-miterlimit="4" stroke-width="2.2857" d="M28 8h-24"></path>
      <path stroke-linejoin="round" stroke-linecap="round" stroke-miterlimit="4" stroke-width="2.2857" d="M28 18.667h-24"></path>
      <path stroke-linejoin="round" stroke-linecap="round" stroke-miterlimit="4" stroke-width="2.2857" d="M22.667 24h-18.667"></path>
    </symbol>
    <symbol id="icon-x-close" viewBox="0 0 32 32">
      <path stroke-linejoin="round" stroke-linecap="round" stroke-miterlimit="4" stroke-width="3.4286" d="M24 8l-16 16M8 8l16 16"></path>
    </symbol>

  </defs>
</svg> 