<svg xmlns="http://www.w3.org/2000/svg" aria-hidden="true" style="position:absolute;width:0;height:0;overflow:hidden">
  <defs>

    <!-- Chevron -->
    <symbol id="icon-chevron" viewBox="0 0 32 32">
      <path fill="#fff" style="fill: var(--color1, #fff)"
        d="M4.5 19.6l11.2-11.233c0.133-0.133 0.278-0.228 0.433-0.283s0.322-0.084 0.5-0.084c0.178 0 0.345 0.028 0.5 0.084s0.3 0.149 0.433 0.283l11.233 11.233c0.311 0.311 0.467 0.7 0.467 1.167s-0.167 0.867-0.5 1.2c-0.333 0.333-0.722 0.5-1.167 0.5s-0.833-0.167-1.167-0.5l-9.8-9.8-9.8 9.8c-0.311 0.311-0.694 0.467-1.149 0.467s-0.851-0.167-1.184-0.5-0.5-0.722-0.5-1.167c0-0.444 0.167-0.833 0.5-1.167z">
      </path>
    </symbol>

     <!-- Emblem -->  
    <symbol id="icon-ua" viewBox="0 0 20 32">
        <path fill="#fff" style="fill: var(--color1, #fff)" d="M9.005 30.888c-1.738-1.262-2.991-3.156-3.414-5.351h-5.591v-23.117c2.991 1.443 5.153 4.599 5.388 7.876l0.846 6.493-0.407-0.045c-0.893 0-1.676 0.812-1.676 1.608 0 0.752 0.595 1.383 1.378 1.548l1.018 0.226c1.676-3.051 2.631-6.042 2.631-8.973 0-2.645-0.36-5.291-0.423-7.996 0-1.202 0.486-2.3 1.253-3.156 0.783 0.857 1.253 1.954 1.253 3.156 0 2.705-0.423 5.351-0.423 7.996 0 2.931 0.955 5.922 2.631 8.973l1.018-0.226c0.783-0.165 1.378-0.812 1.378-1.548 0-0.812-0.783-1.608-1.676-1.608l-0.423 0.060 0.846-6.493c0.423-3.277 2.396-6.448 5.388-7.876v23.117h-5.576c-0.423 2.179-1.613 4.148-3.414 5.351-0.423 0.286-0.783 0.631-1.018 1.097-0.219-0.466-0.579-0.812-0.987-1.112zM2.647 17.556c0.235-0.857 0.893-1.608 1.738-2.074l-0.658-5.351c-0.235-1.668-0.955-3.156-2.036-4.374v11.784h0.955v0.015zM5.466 23.929c0-0.812 0.125-1.548 0.298-2.3l-0.783-0.18c-1.143-0.346-2.036-1.203-2.334-2.3h-0.955v4.78h3.774zM9.178 23.929c0-0.977-0.783-1.834-1.801-1.954-0.172 0.631-0.298 1.263-0.298 1.954h2.099zM9.178 25.552h-1.864c0.298 1.263 0.955 2.42 1.864 3.397v-3.397zM11.809 20.547c-0.72-1.262-1.378-2.585-1.801-3.968-0.423 1.383-1.081 2.706-1.801 3.968 0.72 0.165 1.316 0.631 1.801 1.157 0.486-0.526 1.081-0.992 1.801-1.157zM12.952 23.929c0-0.691-0.125-1.323-0.297-1.954-1.018 0.12-1.801 0.977-1.801 1.954h2.099zM12.717 25.552h-1.864v3.397c0.908-0.992 1.566-2.134 1.864-3.397zM18.34 23.929v-4.78h-0.955c-0.298 1.097-1.206 1.954-2.334 2.3l-0.783 0.18c0.172 0.752 0.298 1.488 0.298 2.3h3.774zM18.34 17.556v-11.799c-1.081 1.202-1.864 2.706-2.036 4.374l-0.658 5.351c0.846 0.466 1.504 1.203 1.739 2.074h0.955z"></path>
    </symbol>

  <!-- Down -->
  <symbol id="icon-down" viewBox="0 0 56 32">
    <path fill="#4f2ee8" style="fill: var(--color1, #4f2ee8)" d="M25.397 21.134c0.341 0.344 0.746 0.616 1.193 0.803s0.926 0.282 1.41 0.282c0.484 0 0.963-0.096 1.41-0.282s0.852-0.459 1.193-0.803l16.794-16.83c0.341-0.344 0.746-0.616 1.193-0.803s0.926-0.282 1.41-0.282c0.484 0 0.963 0.096 1.41 0.282s0.852 0.459 1.193 0.803c0.683 0.687 1.066 1.616 1.066 2.585s-0.383 1.898-1.066 2.585l-16.83 16.83c-2.062 2.060-4.858 3.217-7.773 3.217s-5.711-1.157-7.773-3.217l-16.83-16.83c-0.677-0.683-1.059-1.605-1.063-2.567-0.003-0.483 0.090-0.961 0.272-1.408s0.451-0.853 0.791-1.196c0.341-0.344 0.746-0.616 1.193-0.803s0.926-0.282 1.41-0.282 0.963 0.096 1.41 0.282c0.447 0.186 0.852 0.459 1.193 0.803l16.793 16.83z"></path>
  </symbol>

  <!-- Logo -->
  <symbol id="icon-logo" viewBox="0 0 31 32">
    <path fill="#f6f6f6" style="fill: var(--color1, #f6f6f6)" d="M0 0.615l15.714 15.549 15.055 15.22v-30.769h-30.769z"></path>
    <path fill="#f6f6f6" style="fill: var(--color1, #f6f6f6)" d="M4.285 4.681l11.484 11.374 10.824 11.044h-22.308v-22.418z"></path>
    <path fill="#4f2ee8" style="fill: var(--color2, #4f2ee8)" d="M26.666 27.171l-11.483-11.374-10.824-11.044h22.308v22.418z"></path>
    <path fill="#4f2ee8" style="fill: var(--color2, #4f2ee8)" d="M8.901 9.297l13.077 13.077h-13.077v-13.077z"></path>
    <path fill="#f6f6f6" style="fill: var(--color1, #f6f6f6)" d="M8.901 9.297l13.077 13.077v-13.077h-13.077z"></path>
  </symbol>

  <!-- Book desktop -->
  <symbol id="icon-Book_desktop" viewBox="0 0 94 32">
  <path d="M22.831 8.341c0-4.761-3.6-7.452-9.827-7.452h-13.004v29.601h13.724c6.269 0 10.293-2.939 10.293-8.653 0-4.43-2.711-6.707-5.888-7.245v-0.083c2.499-0.828 4.702-2.525 4.702-6.169zM5.040 13.143v-8.073h8.090c3.007 0 4.659 1.449 4.659 4.057s-1.355 4.016-4.956 4.016h-7.794zM5.040 16.828h8.853c3.177 0 5.083 1.697 5.083 4.72 0 2.774-1.313 4.761-5.633 4.761h-8.302v-9.481z"></path>
  <path d="M36.949 31.111c-6.777 0-10.886-4.595-10.886-11.178s4.109-11.178 10.886-11.178 10.886 4.595 10.886 11.178c0 6.583-4.109 11.178-10.886 11.178zM36.949 27.551c4.236 0 6.438-3.271 6.438-7.618 0-4.388-2.203-7.618-6.438-7.618s-6.438 3.229-6.438 7.618c0 4.347 2.203 7.618 6.438 7.618z"></path>
  <path d="M60.651 31.111c-6.777 0-10.886-4.595-10.886-11.178s4.109-11.178 10.886-11.178c6.777 0 10.886 4.595 10.886 11.178s-4.109 11.178-10.886 11.178zM60.651 27.551c4.236 0 6.438-3.271 6.438-7.618 0-4.388-2.203-7.618-6.438-7.618s-6.438 3.229-6.438 7.618c0 4.347 2.203 7.618 6.438 7.618z"></path>
  <path d="M74.611 0.889v29.601h4.447v-7.659l3.007-2.774 6.82 10.433h5.337l-9.107-13.29 8.217-7.866h-5.464l-8.81 8.487v-16.933h-4.447z"></path>
  </symbol>

  <!-- Cart -->
  <symbol id="icon-uil-cart" viewBox="0 0 34 32">
  <path d="M26.667 8.14h-4.211v-1.404c0-1.489-0.591-2.917-1.644-3.97s-2.481-1.644-3.97-1.644c-1.489 0-2.917 0.591-3.97 1.644s-1.644 2.481-1.644 3.97v1.404h-4.211c-0.372 0-0.729 0.148-0.992 0.411s-0.411 0.62-0.411 0.992v15.439c0 1.117 0.444 2.188 1.233 2.977s1.861 1.233 2.977 1.233h14.035c1.117 0 2.188-0.444 2.977-1.233s1.233-1.861 1.233-2.977v-15.439c0-0.372-0.148-0.729-0.411-0.992s-0.62-0.411-0.992-0.411zM14.035 6.737c0-0.744 0.296-1.458 0.822-1.985s1.24-0.822 1.985-0.822c0.744 0 1.458 0.296 1.985 0.822s0.822 1.24 0.822 1.985v1.403h-5.614v-1.404zM25.264 24.983c0 0.372-0.148 0.729-0.411 0.992s-0.62 0.411-0.992 0.411h-14.035c-0.372 0-0.729-0.148-0.992-0.411s-0.411-0.62-0.411-0.992v-14.035h2.807v1.403c0 0.372 0.148 0.729 0.411 0.992s0.62 0.411 0.992 0.411c0.372 0 0.729-0.148 0.992-0.411s0.411-0.62 0.411-0.992v-1.403h5.614v1.403c0 0.372 0.148 0.729 0.411 0.992s0.62 0.411 0.992 0.411c0.372 0 0.729-0.148 0.992-0.411s0.411-0.62 0.411-0.992v-1.403h2.807v14.035z"></path>
  </symbol>

  <!-- Close -->

  <!-- <symbol id="icon-x-close" viewBox="0 0 20 20">
        <path
          d="M10 8.586l-7.071-7.071-1.414 1.414 7.071 7.071-7.071 7.071 1.414 1.414 7.071-7.071 7.071 7.071 1.414-1.414-7.071-7.071 7.071-7.071-1.414-1.414-7.071 7.071z">
        </path>
      </symbol> -->

  <symbol id="icon-x-close" viewBox="0 0 32 32">
    <path d="M7.626 6.245c-0.291 0.085-0.749 0.427-1.029 0.774-0.432 0.533-0.509 1.054-0.24 1.616 0.088 0.184 1.011 1.143 3.665 3.806l3.547 3.56-3.551 3.56c-3.907 3.918-3.806 3.799-3.805 4.44 0 0.449 0.157 0.77 0.586 1.199 0.429 0.43 0.75 0.586 1.199 0.586 0.634 0 0.526 0.093 4.44-3.808l3.56-3.547 3.56 3.547c3.914 3.901 3.806 3.808 4.44 3.808 0.449 0 0.77-0.157 1.199-0.586 0.43-0.429 0.586-0.75 0.586-1.199 0-0.634 0.093-0.526-3.808-4.44l-3.547-3.56 3.547-3.56c3.901-3.914 3.808-3.806 3.808-4.44 0-0.449-0.157-0.77-0.586-1.199-0.429-0.43-0.75-0.586-1.199-0.586-0.634 0-0.526-0.093-4.44 3.808l-3.56 3.547-3.56-3.547c-2.721-2.712-3.619-3.576-3.814-3.67-0.29-0.138-0.728-0.186-1-0.109z"></path>
  </symbol>

  <!-- Lock -->
  <symbol id="icon-lock" viewBox="0 0 32 32">
      <path d="M14.751 2.963c-2.995 0.511-5.381 2.662-6.226 5.479l-0.014 0.056c-0.257 0.886-0.297 1.331-0.297 3.257v1.783l-0.36 0.034c-1.35 0.129-2.006 0.345-2.875 0.944-0.793 0.547-1.498 1.496-1.797 2.417-0.256 0.792-0.275 1.098-0.275 4.4 0 3.301 0.019 3.607 0.275 4.4 0.304 0.939 1.032 1.904 1.858 2.462 0.658 0.445 1.16 0.647 2 0.803 0.472 0.088 1.093 0.095 8.96 0.095s8.488-0.007 8.96-0.095c0.84-0.157 1.342-0.359 2-0.803 0.826-0.558 1.554-1.522 1.858-2.462 0.256-0.793 0.275-1.099 0.275-4.4 0-3.302-0.019-3.608-0.275-4.4-0.304-0.941-1.032-1.904-1.858-2.463-0.824-0.557-1.499-0.773-2.814-0.898l-0.36-0.034v-1.783c0-1.926-0.040-2.371-0.297-3.257-0.859-2.891-3.271-5.051-6.245-5.531l-0.045-0.006c-0.611-0.098-1.855-0.097-2.448 0.002zM17.12 5.262c1.75 0.345 3.32 1.665 3.997 3.36 0.363 0.909 0.399 1.194 0.401 3.165l0.002 1.734h-11.040l0.002-1.734c0.002-1.97 0.038-2.256 0.401-3.165 0.871-2.181 3.074-3.599 5.383-3.465 0.25 0.015 0.634 0.062 0.854 0.105zM23.605 15.838c0.511 0.027 1.061 0.087 1.253 0.136 0.855 0.221 1.616 0.982 1.835 1.835 0.247 0.96 0.247 6.089 0 7.048-0.219 0.854-0.981 1.615-1.835 1.835-0.601 0.155-2.011 0.185-8.857 0.185s-8.256-0.030-8.857-0.185c-0.855-0.221-1.616-0.982-1.835-1.835-0.248-0.96-0.247-6.090 0-7.048 0.221-0.856 0.979-1.614 1.839-1.838 0.191-0.049 0.683-0.107 1.094-0.129 1.091-0.057 14.294-0.062 15.365-0.005z"></path>
    </symbol>

    <!-- Email -->
    <symbol id="icon-mail" viewBox="0 0 32 32">
      <path d="M6.4 4.248c-0.475 0.049-1.258 0.195-1.51 0.282-0.931 0.32-1.833 0.997-2.374 1.782-0.501 0.726-0.687 1.19-0.861 2.142-0.104 0.568-0.107 0.799-0.106 7.36 0 6.487 0.016 7.271 0.161 8.026 0.262 1.261 0.984 2.319 1.98 3.012l0.016 0.010c0.658 0.445 1.16 0.646 2 0.802 0.474 0.089 1.15 0.095 10.294 0.095s9.819-0.006 10.294-0.095c0.869-0.162 1.357-0.362 2.061-0.848 0.981-0.701 1.681-1.741 1.93-2.946l0.005-0.031c0.145-0.755 0.161-1.539 0.161-8.026 0.001-6.561-0.002-6.792-0.106-7.36-0.127-0.694-0.222-1.007-0.439-1.44-0.378-0.759-0.918-1.394-1.551-1.831-0.682-0.47-1.173-0.677-2.008-0.845-0.417-0.085-1.216-0.093-10.106-0.101-5.31-0.005-9.737 0-9.84 0.010zM24.937 6.504c0.512 0.027 1.062 0.087 1.254 0.137 0.845 0.218 1.614 0.981 1.83 1.811 0.065 0.251 0.069 0.334 0.018 0.383-0.198 0.19-11.107 7.776-11.387 7.919-0.265 0.135-0.401 0.17-0.651 0.17s-0.386-0.035-0.651-0.17c-0.28-0.143-11.19-7.729-11.387-7.919-0.050-0.049-0.047-0.131 0.018-0.383 0.217-0.834 0.984-1.593 1.834-1.814 0.191-0.050 0.682-0.109 1.093-0.13 1.091-0.057 16.959-0.061 18.031-0.005zM7.097 13.826c1.77 1.24 3.216 2.273 3.211 2.298-0.005 0.024-1.456 1.351-3.225 2.949-3.099 2.799-3.218 2.899-3.25 2.755-0.051-0.229-0.053-10.255-0.001-10.255 0.025 0 1.495 1.014 3.265 2.253zM28.207 16.626c-0.003 2.779-0.022 5.121-0.040 5.202-0.032 0.144-0.151 0.043-3.25-2.755-1.769-1.598-3.221-2.925-3.225-2.949-0.008-0.048 6.4-4.551 6.477-4.551 0.025 0 0.042 2.273 0.039 5.053zM13.238 18.115c1.325 0.896 1.801 1.082 2.762 1.082 0.962 0 1.438-0.186 2.767-1.085 0.507-0.344 0.945-0.618 0.971-0.609s1.789 1.587 3.914 3.507l3.867 3.491-0.2 0.206c-0.306 0.3-0.686 0.525-1.111 0.646l-0.018 0.004c-0.615 0.159-2.048 0.185-10.191 0.185s-9.576-0.026-10.191-0.185c-0.443-0.125-0.823-0.35-1.13-0.651l0 0-0.2-0.206 3.88-3.504c2.134-1.928 3.897-3.505 3.919-3.505s0.453 0.28 0.959 0.622z"></path>
    </symbol>

    <symbol id="icon-arrow-right" viewBox="0 0 32 32">
      <path fill="none" stroke="#eac645" style="stroke: var(--color1, #eac645)" stroke-linejoin="round"
        stroke-linecap="round" stroke-miterlimit="4" stroke-width="3.2"
        d="M5.333 16h21.333M26.667 16l-8-8M26.667 16l-8 8"></path>
    </symbol>

    <symbol id="icon-arrow-down" viewBox="0 0 28 32">
      <path fill="#fff" style="fill: var(--color1, #fff)"
        d="M5.898 12h16.513l-7.423 8.391c-0.221 0.25-0.521 0.39-0.834 0.39s-0.613-0.14-0.834-0.39l-7.422-8.391z"></path>
    </symbol>

    <symbol id="icon-user" viewBox="0 0 32 32">
      <path fill="#f6f6f6" style="fill: var(--color1, #f6f6f6)"
        d="M32 16c0 8.837-7.163 16-16 16s-16-7.163-16-16c0-8.837 7.163-16 16-16s16 7.163 16 16z"></path>
      <path fill="#4f2ee8" style="fill: var(--color2, #4f2ee8)"
        d="M10.522 22.847c0-1.453 0.577-2.846 1.604-3.873s2.421-1.604 3.873-1.604c1.453 0 2.846 0.577 3.873 1.604s1.604 2.42 1.604 3.873h-10.955zM16 16.685c-2.27 0-4.108-1.838-4.108-4.108s1.838-4.108 4.108-4.108c2.27 0 4.108 1.838 4.108 4.108s-1.838 4.108-4.108 4.108z">
      </path>
    </symbol>
    <!--  -->

    <symbol id="icon-logo" viewBox="0 0 31 32">
      <path fill="#f6f6f6" style="fill: var(--color1, #f6f6f6)"
        d="M0 0.615l15.714 15.549 15.055 15.22v-30.769h-30.769z"></path>
      <path fill="#f6f6f6" style="fill: var(--color1, #f6f6f6)"
        d="M4.285 4.681l11.484 11.374 10.824 11.044h-22.308v-22.418z"></path>
      <path fill="#4f2ee8" style="fill: var(--color2, #4f2ee8)"
        d="M26.666 27.171l-11.483-11.374-10.824-11.044h22.308v22.418z"></path>
      <path fill="#4f2ee8" style="fill: var(--color2, #4f2ee8)" d="M8.901 9.297l13.077 13.077h-13.077v-13.077z"></path>
      <path fill="#f6f6f6" style="fill: var(--color1, #f6f6f6)" d="M8.901 9.297l13.077 13.077v-13.077h-13.077z"></path>
    </symbol>

    <symbol id="icon-Book_desktop" viewBox="0 0 94 32">
      <path
        d="M22.831 8.341c0-4.761-3.6-7.452-9.827-7.452h-13.004v29.601h13.724c6.269 0 10.293-2.939 10.293-8.653 0-4.43-2.711-6.707-5.888-7.245v-0.083c2.499-0.828 4.702-2.525 4.702-6.169zM5.040 13.143v-8.073h8.090c3.007 0 4.659 1.449 4.659 4.057s-1.355 4.016-4.956 4.016h-7.794zM5.040 16.828h8.853c3.177 0 5.083 1.697 5.083 4.72 0 2.774-1.313 4.761-5.633 4.761h-8.302v-9.481z">
      </path>
      <path
        d="M36.949 31.111c-6.777 0-10.886-4.595-10.886-11.178s4.109-11.178 10.886-11.178 10.886 4.595 10.886 11.178c0 6.583-4.109 11.178-10.886 11.178zM36.949 27.551c4.236 0 6.438-3.271 6.438-7.618 0-4.388-2.203-7.618-6.438-7.618s-6.438 3.229-6.438 7.618c0 4.347 2.203 7.618 6.438 7.618z">
      </path>
      <path
        d="M60.651 31.111c-6.777 0-10.886-4.595-10.886-11.178s4.109-11.178 10.886-11.178c6.777 0 10.886 4.595 10.886 11.178s-4.109 11.178-10.886 11.178zM60.651 27.551c4.236 0 6.438-3.271 6.438-7.618 0-4.388-2.203-7.618-6.438-7.618s-6.438 3.229-6.438 7.618c0 4.347 2.203 7.618 6.438 7.618z">
      </path>
      <path
        d="M74.611 0.889v29.601h4.447v-7.659l3.007-2.774 6.82 10.433h5.337l-9.107-13.29 8.217-7.866h-5.464l-8.81 8.487v-16.933h-4.447z">
      </path>
    </symbol>

    <symbol id="icon-uil-cart" viewBox="0 0 34 32">
      <path
        d="M26.667 8.14h-4.211v-1.404c0-1.489-0.591-2.917-1.644-3.97s-2.481-1.644-3.97-1.644c-1.489 0-2.917 0.591-3.97 1.644s-1.644 2.481-1.644 3.97v1.404h-4.211c-0.372 0-0.729 0.148-0.992 0.411s-0.411 0.62-0.411 0.992v15.439c0 1.117 0.444 2.188 1.233 2.977s1.861 1.233 2.977 1.233h14.035c1.117 0 2.188-0.444 2.977-1.233s1.233-1.861 1.233-2.977v-15.439c0-0.372-0.148-0.729-0.411-0.992s-0.62-0.411-0.992-0.411zM14.035 6.737c0-0.744 0.296-1.458 0.822-1.985s1.24-0.822 1.985-0.822c0.744 0 1.458 0.296 1.985 0.822s0.822 1.24 0.822 1.985v1.403h-5.614v-1.404zM25.264 24.983c0 0.372-0.148 0.729-0.411 0.992s-0.62 0.411-0.992 0.411h-14.035c-0.372 0-0.729-0.148-0.992-0.411s-0.411-0.62-0.411-0.992v-14.035h2.807v1.403c0 0.372 0.148 0.729 0.411 0.992s0.62 0.411 0.992 0.411c0.372 0 0.729-0.148 0.992-0.411s0.411-0.62 0.411-0.992v-1.403h5.614v1.403c0 0.372 0.148 0.729 0.411 0.992s0.62 0.411 0.992 0.411c0.372 0 0.729-0.148 0.992-0.411s0.411-0.62 0.411-0.992v-1.403h2.807v14.035z">
      </path>
    </symbol>
    <!-- Paginations buttons  -->
    <!-- arrow double-small-left -->
        <symbol id="icon-double-small-left" viewBox="0 0 32 32">
        <path fill="#FFFFFF" style="fill: var(--color1, #FFFFFF)" d="M13.973 25.333c-0.364-0.002-0.694-0.149-0.933-0.387l-6.12-6.12c-0.723-0.724-1.17-1.723-1.17-2.827s0.447-2.103 1.17-2.827l6.12-6.12c0.241-0.239 0.573-0.387 0.94-0.387 0.737 0 1.334 0.597 1.334 1.334 0 0.37-0.151 0.705-0.394 0.947l-0 0-6.12 6.107c-0.244 0.242-0.395 0.576-0.395 0.947s0.151 0.705 0.395 0.947l0 0 6.12 6.107c0.244 0.241 0.395 0.576 0.395 0.946 0 0.186-0.038 0.362-0.107 0.523l0.003-0.009c-0.206 0.486-0.678 0.82-1.229 0.82-0.003 0-0.007 0-0.010-0h0.001z"></path>
        <path fill="#FFFFFF" style="fill: var(--color1, #FFFFFF)" d="M23.307 25.333c-0.364-0.002-0.694-0.149-0.933-0.387l-8-8c-0.244-0.241-0.396-0.576-0.396-0.947s0.151-0.705 0.395-0.947l8-8c0.241-0.239 0.573-0.387 0.94-0.387 0.737 0 1.334 0.597 1.334 1.334 0 0.37-0.151 0.705-0.394 0.947l-7.053 7.053 7.053 7.053c0.244 0.241 0.396 0.576 0.396 0.947s-0.151 0.705-0.395 0.947l-0 0c-0.241 0.239-0.573 0.387-0.939 0.387-0.003 0-0.005 0-0.008-0h0z"></path>
    </symbol>
    <!-- arrow double-small-right -->
    <symbol id="icon-double-small-right" viewBox="0 0 32 32">
    <path fill="#000000" style="fill: var(--color1, #000000)" d="M17.467 25.333c-0.734-0.003-1.328-0.599-1.328-1.333 0-0.37 0.151-0.705 0.394-0.947l0-0 6.133-6.107c0.243-0.242 0.394-0.577 0.394-0.947s-0.151-0.705-0.394-0.947l-0-0-6.133-6.107c-0.244-0.241-0.396-0.576-0.396-0.947s0.151-0.705 0.395-0.947l0-0c0.241-0.24 0.573-0.388 0.94-0.388s0.699 0.148 0.94 0.388l6.12 6.12c0.723 0.724 1.17 1.723 1.17 2.827s-0.447 2.103-1.17 2.827l-6.12 6.12c-0.241 0.239-0.573 0.387-0.939 0.387-0.003 0-0.005 0-0.008-0h0z"></path>
    <path fill="#000000" style="fill: var(--color1, #000000)" d="M8.133 25.333c-0.734-0.003-1.328-0.599-1.328-1.333 0-0.37 0.151-0.705 0.394-0.947l7.053-7.053-7.053-7.053c-0.243-0.242-0.394-0.577-0.394-0.947 0-0.737 0.597-1.334 1.334-1.334 0.367 0 0.699 0.148 0.94 0.388l8 8c0.244 0.242 0.394 0.577 0.394 0.947s-0.151 0.705-0.394 0.947l-8 8c-0.241 0.239-0.573 0.387-0.939 0.387-0.003 0-0.005 0-0.008-0h0z"></path>
    </symbol>
    <!-- arrow small-left -->
    <symbol id="icon-small-left" viewBox="0 0 32 32">
    <path fill="#FFFFFF" style="fill: var(--color1, #FFFFFF)" d="M14.133 16.947c-0.243-0.242-0.394-0.577-0.394-0.947s0.151-0.705 0.394-0.947l0-0 6.12-6.107c0.243-0.242 0.394-0.577 0.394-0.947 0-0.737-0.597-1.334-1.334-1.334-0.367 0-0.699 0.148-0.94 0.388l-6.12 6.12c-0.723 0.724-1.17 1.723-1.17 2.827s0.447 2.103 1.17 2.827l6.12 6.12c0.241 0.239 0.573 0.387 0.94 0.387 0.737 0 1.334-0.597 1.334-1.334 0-0.37-0.151-0.705-0.394-0.947l-0-0-6.12-6.107z"></path>
    </symbol>
    <!-- arrow small-right -->
    <symbol id="icon-small-right" viewBox="0 0 32 32">
    <path fill="#000000" style="fill: var(--color1, #000000)" d="M20.533 13.173l-6.12-6.12c-0.241-0.239-0.573-0.387-0.94-0.387-0.737 0-1.334 0.597-1.334 1.334 0 0.37 0.151 0.705 0.394 0.947l0 0 6.133 6.107c0.244 0.241 0.395 0.576 0.395 0.946 0 0.186-0.038 0.362-0.107 0.523l0.003-0.009c-0.072 0.169-0.171 0.313-0.293 0.433l-0 0-6.133 6.107c-0.243 0.242-0.394 0.577-0.394 0.947 0 0.737 0.597 1.334 1.334 1.334 0.367 0 0.699-0.148 0.94-0.387l6.12-6.12c0.723-0.724 1.17-1.723 1.17-2.827s-0.447-2.103-1.17-2.827l0 0z"></path>
    </symbol> 

  </defs>
</svg> 

