
<svg xmlns="http://www.w3.org/2000/svg" aria-hidden="true" style="position:absolute;width:0;height:0;overflow:hidden">
  <defs>

    <!-- Chevron -->
    <symbol id="icon-chevron" viewBox="0 0 32 32">
        <path fill="#fff" style="fill: var(--color1, #fff)" d="M4.5 19.6l11.2-11.233c0.133-0.133 0.278-0.228 0.433-0.283s0.322-0.084 0.5-0.084c0.178 0 0.345 0.028 0.5 0.084s0.3 0.149 0.433 0.283l11.233 11.233c0.311 0.311 0.467 0.7 0.467 1.167s-0.167 0.867-0.5 1.2c-0.333 0.333-0.722 0.5-1.167 0.5s-0.833-0.167-1.167-0.5l-9.8-9.8-9.8 9.8c-0.311 0.311-0.694 0.467-1.149 0.467s-0.851-0.167-1.184-0.5-0.5-0.722-0.5-1.167c0-0.444 0.167-0.833 0.5-1.167z"></path>
    </symbol>
    <!-- arrow double-small-left -->
        <symbol id="icon-double-small-left" viewBox="0 0 32 32">
        <path fill="#FFFFFF" style="fill: var(--color1, #FFFFFF)" d="M13.973 25.333c-0.364-0.002-0.694-0.149-0.933-0.387l-6.12-6.12c-0.723-0.724-1.17-1.723-1.17-2.827s0.447-2.103 1.17-2.827l6.12-6.12c0.241-0.239 0.573-0.387 0.94-0.387 0.737 0 1.334 0.597 1.334 1.334 0 0.37-0.151 0.705-0.394 0.947l-0 0-6.12 6.107c-0.244 0.242-0.395 0.576-0.395 0.947s0.151 0.705 0.395 0.947l0 0 6.12 6.107c0.244 0.241 0.395 0.576 0.395 0.946 0 0.186-0.038 0.362-0.107 0.523l0.003-0.009c-0.206 0.486-0.678 0.82-1.229 0.82-0.003 0-0.007 0-0.010-0h0.001z"></path>
        <path fill="#FFFFFF" style="fill: var(--color1, #FFFFFF)" d="M23.307 25.333c-0.364-0.002-0.694-0.149-0.933-0.387l-8-8c-0.244-0.241-0.396-0.576-0.396-0.947s0.151-0.705 0.395-0.947l8-8c0.241-0.239 0.573-0.387 0.94-0.387 0.737 0 1.334 0.597 1.334 1.334 0 0.37-0.151 0.705-0.394 0.947l-7.053 7.053 7.053 7.053c0.244 0.241 0.396 0.576 0.396 0.947s-0.151 0.705-0.395 0.947l-0 0c-0.241 0.239-0.573 0.387-0.939 0.387-0.003 0-0.005 0-0.008-0h0z"></path>
    </symbol>
    <!-- arrow double-small-right -->
    <symbol id="icon-double-small-right" viewBox="0 0 32 32">
    <path fill="#000000" style="fill: var(--color1, #000000)" d="M17.467 25.333c-0.734-0.003-1.328-0.599-1.328-1.333 0-0.37 0.151-0.705 0.394-0.947l0-0 6.133-6.107c0.243-0.242 0.394-0.577 0.394-0.947s-0.151-0.705-0.394-0.947l-0-0-6.133-6.107c-0.244-0.241-0.396-0.576-0.396-0.947s0.151-0.705 0.395-0.947l0-0c0.241-0.24 0.573-0.388 0.94-0.388s0.699 0.148 0.94 0.388l6.12 6.12c0.723 0.724 1.17 1.723 1.17 2.827s-0.447 2.103-1.17 2.827l-6.12 6.12c-0.241 0.239-0.573 0.387-0.939 0.387-0.003 0-0.005 0-0.008-0h0z"></path>
    <path fill="#000000" style="fill: var(--color1, #000000)" d="M8.133 25.333c-0.734-0.003-1.328-0.599-1.328-1.333 0-0.37 0.151-0.705 0.394-0.947l7.053-7.053-7.053-7.053c-0.243-0.242-0.394-0.577-0.394-0.947 0-0.737 0.597-1.334 1.334-1.334 0.367 0 0.699 0.148 0.94 0.388l8 8c0.244 0.242 0.394 0.577 0.394 0.947s-0.151 0.705-0.394 0.947l-8 8c-0.241 0.239-0.573 0.387-0.939 0.387-0.003 0-0.005 0-0.008-0h0z"></path>
    </symbol>
    <!-- arrow small-left -->
    <symbol id="icon-small-left" viewBox="0 0 32 32">
    <path fill="#FFFFFF" style="fill: var(--color1, #FFFFFF)" d="M14.133 16.947c-0.243-0.242-0.394-0.577-0.394-0.947s0.151-0.705 0.394-0.947l0-0 6.12-6.107c0.243-0.242 0.394-0.577 0.394-0.947 0-0.737-0.597-1.334-1.334-1.334-0.367 0-0.699 0.148-0.94 0.388l-6.12 6.12c-0.723 0.724-1.17 1.723-1.17 2.827s0.447 2.103 1.17 2.827l6.12 6.12c0.241 0.239 0.573 0.387 0.94 0.387 0.737 0 1.334-0.597 1.334-1.334 0-0.37-0.151-0.705-0.394-0.947l-0-0-6.12-6.107z"></path>
    </symbol>
    <!-- arrow small-right -->
    <symbol id="icon-small-right" viewBox="0 0 32 32">
    <path fill="#000000" style="fill: var(--color1, #000000)" d="M20.533 13.173l-6.12-6.12c-0.241-0.239-0.573-0.387-0.94-0.387-0.737 0-1.334 0.597-1.334 1.334 0 0.37 0.151 0.705 0.394 0.947l0 0 6.133 6.107c0.244 0.241 0.395 0.576 0.395 0.946 0 0.186-0.038 0.362-0.107 0.523l0.003-0.009c-0.072 0.169-0.171 0.313-0.293 0.433l-0 0-6.133 6.107c-0.243 0.242-0.394 0.577-0.394 0.947 0 0.737 0.597 1.334 1.334 1.334 0.367 0 0.699-0.148 0.94-0.387l6.12-6.12c0.723-0.724 1.17-1.723 1.17-2.827s-0.447-2.103-1.17-2.827l0 0z"></path>
    </symbol> 

  </defs>
</svg> 

